<svg width="213" height="34" viewBox="0 0 213 34" fill="none" xmlns="http://www.w3.org/2000/svg">
<path fill-rule="evenodd" clip-rule="evenodd" d="M6.34004 2.98648C6.34004 1.33709 7.65794 -3.61492e-06 9.28365 0L29.3227 4.44747e-05C30.9484 4.80896e-05 32.2663 1.33714 32.2663 2.98652V8.18624L34.9883 6.90287C36.9395 5.98294 39.1724 7.42831 39.1724 9.6112V31.0135C39.1724 32.6629 37.8546 34 36.2288 34H2.94359C1.31789 34 0 32.6629 0 31.0135V16.4944C0 14.1454 2.54957 12.7159 4.50987 13.9658L19.0782 23.2547C19.9254 23.7948 20.1805 24.9293 19.6481 25.7886C19.1158 26.6481 17.9976 26.907 17.1506 26.3669L3.62288 17.7416V30.3243H35.5495V10.6914L32.2663 12.2394V22.4279C32.2663 24.7546 29.7598 26.1877 27.798 24.9826L18.9929 19.5733C16.9781 18.3356 17.1411 15.3175 19.2771 14.3103L28.6434 9.89434V3.67571L9.96292 3.67568V10.9121C9.96292 11.9271 9.15191 12.75 8.15149 12.75C7.15105 12.75 6.34004 11.9271 6.34004 10.9121V2.98648ZM28.6434 13.9476L21.9595 17.0989L28.6434 21.2049V13.9476Z" fill="#F1B519"/>
<path d="M164.934 18.2143C163.848 18.2143 162.874 18.0274 162.012 17.6538C161.15 17.2646 160.463 16.743 159.952 16.0892C159.457 15.4354 159.186 14.7115 159.138 13.9176H162.515C162.579 14.4158 162.826 14.8283 163.258 15.1552C163.705 15.4821 164.255 15.6456 164.91 15.6456C165.548 15.6456 166.043 15.521 166.395 15.2719C166.762 15.0228 166.946 14.7037 166.946 14.3145C166.946 13.8941 166.722 13.5828 166.275 13.3805C165.844 13.1625 165.149 12.929 164.191 12.6799C163.201 12.4464 162.387 12.205 161.749 11.956C161.126 11.707 160.583 11.3255 160.119 10.8118C159.672 10.2981 159.449 9.60523 159.449 8.73351C159.449 8.01736 159.657 7.36352 160.072 6.77194C160.503 6.18038 161.109 5.71334 161.892 5.37085C162.691 5.02836 163.625 4.85712 164.695 4.85712C166.275 4.85712 167.537 5.24631 168.479 6.0247C169.421 6.78751 169.94 7.82277 170.035 9.13048H166.826C166.778 8.61674 166.555 8.21199 166.156 7.91617C165.772 7.60482 165.253 7.44914 164.598 7.44914C163.992 7.44914 163.521 7.55812 163.186 7.77607C162.866 7.99401 162.707 8.29755 162.707 8.68674C162.707 9.1227 162.93 9.45735 163.377 9.69089C163.824 9.90887 164.519 10.1346 165.461 10.3681C166.419 10.6016 167.209 10.8429 167.832 11.092C168.455 11.3411 168.989 11.7303 169.436 12.2596C169.9 12.7733 170.139 13.4583 170.155 14.3145C170.155 15.0617 169.94 15.7312 169.508 16.3227C169.093 16.9144 168.487 17.3813 167.688 17.7239C166.905 18.0508 165.987 18.2143 164.934 18.2143Z" fill="white"/>
<path d="M154.704 7.41401V14.0073C154.704 14.4666 154.816 14.8028 155.04 15.0161C155.282 15.2128 155.679 15.3113 156.231 15.3113H157.914V18.2143H155.635C152.581 18.2143 151.054 16.8038 151.054 13.9827V7.41401H149.345V4.58477H151.054V1.21429H154.704V4.58477H157.914V7.41401H154.704Z" fill="white"/>
<path d="M144.093 7.09123C144.519 6.39406 145.072 5.84742 145.751 5.4513C146.446 5.05518 147.236 4.85712 148.121 4.85712V8.35094H147.244C146.202 8.35094 145.412 8.59645 144.875 9.08767C144.354 9.57888 144.093 10.4345 144.093 11.6546V18.2143H140.776V5.04725H144.093V7.09123Z" fill="white"/>
<path d="M131.5 18.2143C130.24 18.2143 129.107 17.9418 128.099 17.3969C127.091 16.8365 126.296 16.0503 125.712 15.0384C125.146 14.0266 124.862 12.859 124.862 11.5356C124.862 10.2124 125.154 9.04482 125.736 8.03293C126.334 7.02104 127.146 6.24265 128.17 5.69778C129.193 5.13733 130.335 4.85712 131.595 4.85712C132.855 4.85712 133.997 5.13733 135.021 5.69778C136.045 6.24265 136.848 7.02104 137.431 8.03293C138.029 9.04482 138.328 10.2124 138.328 11.5356C138.328 12.859 138.021 14.0266 137.407 15.0384C136.808 16.0503 135.99 16.8365 134.95 17.3969C133.926 17.9418 132.777 18.2143 131.5 18.2143ZM131.5 15.3654C132.099 15.3654 132.658 15.2253 133.178 14.9451C133.713 14.6492 134.139 14.2133 134.454 13.6374C134.769 13.0613 134.926 12.3608 134.926 11.5356C134.926 10.3058 134.595 9.36401 133.934 8.71017C133.289 8.04072 132.493 7.70601 131.548 7.70601C130.603 7.70601 129.807 8.04072 129.162 8.71017C128.532 9.36401 128.217 10.3058 128.217 11.5356C128.217 12.7655 128.524 13.7152 129.138 14.3845C129.768 15.0384 130.555 15.3654 131.5 15.3654Z" fill="white"/>
<path d="M113.445 6.94797C113.866 6.35282 114.442 5.85948 115.175 5.46793C115.923 5.06072 116.773 4.85712 117.723 4.85712C118.83 4.85712 119.828 5.1312 120.716 5.67936C121.62 6.22753 122.329 7.01062 122.843 8.02865C123.373 9.03102 123.638 10.1978 123.638 11.5291C123.638 12.8603 123.373 14.0428 122.843 15.0765C122.329 16.0945 121.62 16.8854 120.716 17.4492C119.828 18.0131 118.83 18.295 117.723 18.295C116.773 18.295 115.931 18.0992 115.198 17.7076C114.482 17.3161 113.897 16.8227 113.445 16.2276V24.2857H110.172V5.06855H113.445V6.94797ZM120.295 11.5291C120.295 10.746 120.132 10.0725 119.804 9.50874C119.493 8.92919 119.072 8.4907 118.541 8.19305C118.027 7.89551 117.466 7.74673 116.858 7.74673C116.266 7.74673 115.705 7.90335 115.175 8.21662C114.661 8.51417 114.24 8.95267 113.912 9.53221C113.601 10.1117 113.445 10.7929 113.445 11.576C113.445 12.3591 113.601 13.0405 113.912 13.6199C114.24 14.1994 114.661 14.6458 115.175 14.959C115.705 15.2566 116.266 15.4054 116.858 15.4054C117.466 15.4054 118.027 15.2487 118.541 14.9355C119.072 14.6223 119.493 14.1759 119.804 13.5965C120.132 13.0169 120.295 12.3278 120.295 11.5291Z" fill="white"/>
<path d="M107.724 11.2554C107.724 11.7225 107.692 12.1428 107.627 12.5165H97.729C97.8104 13.4505 98.1526 14.1822 98.7554 14.7115C99.3583 15.2408 100.1 15.5055 100.979 15.5055C102.251 15.5055 103.155 14.9839 103.692 13.9409H107.382C106.992 15.1863 106.242 16.2137 105.134 17.0233C104.026 17.8173 102.665 18.2143 101.053 18.2143C99.7496 18.2143 98.5762 17.9418 97.5334 17.3969C96.5071 16.8365 95.7006 16.0503 95.1141 15.0384C94.5438 14.0266 94.2587 12.859 94.2587 11.5356C94.2587 10.1968 94.5438 9.02149 95.1141 8.00959C95.6843 6.99768 96.4827 6.21929 97.509 5.67442C98.5355 5.12955 99.7162 4.85712 101.053 4.85712C102.34 4.85712 103.488 5.12176 104.498 5.65107C105.525 6.18038 106.315 6.93541 106.869 7.91617C107.44 8.88139 107.724 9.99443 107.724 11.2554ZM104.181 10.3214C104.165 9.48069 103.847 8.81129 103.227 8.3132C102.609 7.79942 101.851 7.54255 100.955 7.54255C100.108 7.54255 99.3908 7.79164 98.8043 8.28977C98.2341 8.7724 97.8838 9.44957 97.7534 10.3214H104.181Z" fill="white"/>
<path d="M88.0113 18.2143L84.3999 11.5896H82.8521V18.2143H79.569V1.21429H85.7131C86.9795 1.21429 88.0582 1.44973 88.9493 1.9206C89.8405 2.37522 90.5049 3.00035 90.9426 3.79595C91.3961 4.57533 91.6227 5.45212 91.6227 6.42633C91.6227 7.54667 91.31 8.5615 90.6847 9.47079C90.0593 10.3638 89.1291 10.9808 87.8941 11.3217L91.8103 18.2143H88.0113ZM82.8521 9.03232H85.5958C86.487 9.03232 87.1514 8.81318 87.5891 8.37471C88.0269 7.92011 88.2458 7.29501 88.2458 6.4994C88.2458 5.72002 88.0269 5.11926 87.5891 4.6971C87.1514 4.25871 86.487 4.03951 85.5958 4.03951H82.8521V9.03232Z" fill="white"/>
<path d="M74.2923 18.2143L71.3684 14.0673L68.7779 18.2143H64.9306L69.573 11.5116L64.8793 4.85712H68.9318L71.83 8.97997L74.4462 4.85712H78.2934L73.6255 11.5116L78.3448 18.2143H74.2923Z" fill="white"/>
<path d="M47.7413 9.72621C47.7413 8.08903 48.0991 6.62664 48.8147 5.33912C49.5458 4.03571 50.5337 3.02636 51.7781 2.31107C53.0382 1.57989 54.446 1.21429 56.0016 1.21429C57.8216 1.21429 59.4161 1.69115 60.7851 2.64487C62.1539 3.59859 63.1106 4.9179 63.6551 6.6028H59.8984C59.525 5.80803 58.9961 5.21197 58.3116 4.81458C57.6427 4.4172 56.8649 4.21851 55.9783 4.21851C55.0293 4.21851 54.1815 4.44899 53.4348 4.90995C52.7037 5.35502 52.1281 5.99083 51.7081 6.81739C51.3036 7.64394 51.1014 8.61357 51.1014 9.72621C51.1014 10.823 51.3036 11.7926 51.7081 12.6351C52.1281 13.4616 52.7037 14.1054 53.4348 14.5664C54.1815 15.0114 55.0293 15.234 55.9783 15.234C56.8649 15.234 57.6427 15.0352 58.3116 14.6378C58.9961 14.2246 59.525 13.6206 59.8984 12.8258H63.6551C63.1106 14.5266 62.1539 15.8538 60.7851 16.8076C59.4316 17.7454 57.8372 18.2143 56.0016 18.2143C54.446 18.2143 53.0382 17.8567 51.7781 17.1414C50.5337 16.4102 49.5458 15.4008 48.8147 14.1133C48.0991 12.8258 47.7413 11.3635 47.7413 9.72621Z" fill="white"/>
<path d="M193.715 31.4424V22.7386H197.503C198.154 22.7386 198.724 22.8661 199.212 23.1211C199.7 23.3761 200.08 23.7345 200.352 24.1963C200.623 24.6581 200.759 25.1979 200.759 25.8155C200.759 26.4389 200.619 26.9786 200.339 27.4348C200.062 27.8909 199.672 28.2422 199.169 28.4887C198.669 28.7352 198.085 28.8585 197.417 28.8585H195.155V27.0225H196.937C197.217 27.0225 197.455 26.9743 197.652 26.878C197.852 26.7788 198.005 26.6386 198.111 26.4573C198.219 26.2759 198.274 26.062 198.274 25.8155C198.274 25.5662 198.219 25.3537 198.111 25.178C198.005 24.9995 197.852 24.8635 197.652 24.77C197.455 24.6737 197.217 24.6256 196.937 24.6256H196.097V31.4424H193.715Z" fill="#979EA8"/>
<path d="M184.953 31.4424V22.7386H188.74C189.392 22.7386 189.961 22.8661 190.45 23.1211C190.938 23.3761 191.318 23.7345 191.59 24.1963C191.861 24.6581 191.997 25.1979 191.997 25.8155C191.997 26.4389 191.857 26.9786 191.577 27.4348C191.3 27.8909 190.91 28.2422 190.407 28.4887C189.907 28.7352 189.323 28.8585 188.655 28.8585H186.393V27.0225H188.175C188.455 27.0225 188.693 26.9743 188.89 26.878C189.09 26.7788 189.243 26.6386 189.349 26.4573C189.457 26.2759 189.512 26.062 189.512 25.8155C189.512 25.5662 189.457 25.3537 189.349 25.178C189.243 24.9995 189.09 24.8635 188.89 24.77C188.693 24.6737 188.455 24.6256 188.175 24.6256H187.335V31.4424H184.953Z" fill="#979EA8"/>
<path d="M176.785 31.4424H174.215L177.111 22.7386H180.367L183.263 31.4424H180.693L178.773 25.1355H178.705L176.785 31.4424ZM176.305 28.0085H181.138V29.7765H176.305V28.0085Z" fill="#979EA8"/>
<path d="M169.311 27.0905C169.311 28.0595 169.121 28.8769 168.741 29.5427C168.362 30.2057 167.849 30.7086 167.203 31.0514C166.558 31.3914 165.838 31.5614 165.044 31.5614C164.244 31.5614 163.522 31.39 162.876 31.0472C162.233 30.7015 161.722 30.1972 161.342 29.5342C160.965 28.8684 160.777 28.0538 160.777 27.0905C160.777 26.1215 160.965 25.3055 161.342 24.6425C161.722 23.9767 162.233 23.4738 162.876 23.1338C163.522 22.791 164.244 22.6196 165.044 22.6196C165.838 22.6196 166.558 22.791 167.203 23.1338C167.849 23.4738 168.362 23.9767 168.741 24.6425C169.121 25.3055 169.311 26.1215 169.311 27.0905ZM166.861 27.0905C166.861 26.5692 166.791 26.13 166.651 25.773C166.514 25.4132 166.309 25.1412 166.038 24.957C165.77 24.77 165.438 24.6765 165.044 24.6765C164.65 24.6765 164.317 24.77 164.046 24.957C163.777 25.1412 163.573 25.4132 163.433 25.773C163.296 26.13 163.227 26.5692 163.227 27.0905C163.227 27.6118 163.296 28.0524 163.433 28.4122C163.573 28.7692 163.777 29.0412 164.046 29.2282C164.317 29.4124 164.65 29.5044 165.044 29.5044C165.438 29.5044 165.77 29.4124 166.038 29.2282C166.309 29.0412 166.514 28.7692 166.651 28.4122C166.791 28.0524 166.861 27.6118 166.861 27.0905Z" fill="#979EA8"/>
<path d="M148.726 22.7386H151.691L153.73 27.6685H153.833L155.873 22.7386H158.837V31.4424H156.507V26.4105H156.438L154.484 31.3744H153.079L151.125 26.3765H151.057V31.4424H148.726V22.7386Z" fill="#979EA8"/>
<path d="M140.377 31.4424V22.7386H146.7V24.6426H142.759V26.1385H146.375V28.0425H142.759V29.5385H146.683V31.4424H140.377Z" fill="#979EA8"/>
<path d="M134.06 31.4424H130.684V22.7386H134.025C134.928 22.7386 135.708 22.9128 136.365 23.2613C137.025 23.607 137.533 24.1056 137.89 24.7573C138.25 25.4061 138.43 26.1839 138.43 27.0905C138.43 27.9972 138.251 28.7763 137.894 29.428C137.537 30.0768 137.032 30.5754 136.378 30.9239C135.723 31.2696 134.951 31.4424 134.06 31.4424ZM133.066 29.4365H133.974C134.408 29.4365 134.778 29.367 135.084 29.2282C135.392 29.0894 135.626 28.85 135.786 28.51C135.949 28.17 136.031 27.6968 136.031 27.0905C136.031 26.4842 135.948 26.011 135.782 25.671C135.619 25.331 135.379 25.0916 135.062 24.9528C134.748 24.814 134.362 24.7445 133.905 24.7445H133.066V29.4365Z" fill="#979EA8"/>
<path d="M118.532 31.4424V22.7386H122.32C122.971 22.7386 123.541 22.8562 124.029 23.0913C124.517 23.3265 124.897 23.6651 125.169 24.1071C125.44 24.5491 125.576 25.0789 125.576 25.6965C125.576 26.3199 125.436 26.8454 125.156 27.2733C124.879 27.7011 124.489 28.0241 123.986 28.2422C123.486 28.4604 122.902 28.5695 122.234 28.5695H119.972V26.7335H121.754C122.034 26.7335 122.272 26.6995 122.469 26.6315C122.669 26.5607 122.822 26.4488 122.928 26.2958C123.036 26.1428 123.091 25.943 123.091 25.6965C123.091 25.4472 123.036 25.2446 122.928 25.0888C122.822 24.9301 122.669 24.814 122.469 24.7403C122.272 24.6638 122.034 24.6256 121.754 24.6256H120.914V31.4424H118.532ZM123.673 27.4475L125.867 31.4424H123.279L121.137 27.4475H123.673Z" fill="#979EA8"/>
<path d="M110.182 31.4424V22.7386H116.506V24.6426H112.564V26.1385H116.18V28.0425H112.564V29.5385H116.489V31.4424H110.182Z" fill="#979EA8"/>
<path d="M98.0977 22.7386H101.062L103.102 27.6685H103.205L105.244 22.7386H108.209V31.4424H105.878V26.4105H105.81L103.856 31.3744H102.451L100.497 26.3765H100.428V31.4424H98.0977V22.7386Z" fill="#979EA8"/>
<path d="M93.7387 22.7386H96.1208V28.3145C96.1208 28.9775 95.9609 29.5512 95.641 30.0357C95.3239 30.5174 94.8812 30.8899 94.3128 31.1534C93.7444 31.4141 93.0846 31.5444 92.3334 31.5444C91.5765 31.5444 90.9139 31.4141 90.3455 31.1534C89.7771 30.8899 89.3344 30.5174 89.0173 30.0357C88.7031 29.5512 88.546 28.9775 88.546 28.3145V22.7386H90.9281V28.1105C90.9281 28.3796 90.9881 28.6205 91.1081 28.833C91.2281 29.0426 91.3937 29.207 91.6051 29.326C91.8193 29.445 92.0621 29.5045 92.3334 29.5045C92.6076 29.5045 92.8504 29.445 93.0618 29.326C93.2731 29.207 93.4388 29.0426 93.5588 28.833C93.6787 28.6205 93.7387 28.3796 93.7387 28.1105V22.7386Z" fill="#979EA8"/>
<path d="M84.3961 25.4585C84.3733 25.1752 84.2662 24.9542 84.0748 24.7955C83.8863 24.6369 83.5992 24.5575 83.2136 24.5575C82.968 24.5575 82.7666 24.5873 82.6095 24.6468C82.4553 24.7034 82.341 24.7814 82.2668 24.8805C82.1925 24.9797 82.154 25.093 82.1511 25.2205C82.1454 25.3254 82.164 25.4203 82.2068 25.5053C82.2525 25.5874 82.3239 25.6625 82.421 25.7305C82.5181 25.7957 82.6424 25.8552 82.7938 25.909C82.9451 25.9628 83.1251 26.011 83.3336 26.0535L84.0534 26.2065C84.5389 26.3085 84.9545 26.4431 85.3001 26.6102C85.6457 26.7774 85.9285 26.9743 86.1485 27.201C86.3684 27.4248 86.5298 27.677 86.6326 27.9575C86.7383 28.238 86.7925 28.544 86.7954 28.8755C86.7925 29.4478 86.6483 29.9323 86.3627 30.3289C86.077 30.7256 85.6686 31.0273 85.1373 31.2342C84.6089 31.441 83.9734 31.5444 83.2308 31.5444C82.4682 31.5444 81.8026 31.4325 81.2342 31.2087C80.6687 30.9848 80.2288 30.6406 79.9146 30.1759C79.6033 29.7084 79.4462 29.1106 79.4434 28.3825H81.7055C81.7198 28.6488 81.7869 28.8726 81.9069 29.054C82.0269 29.2353 82.1954 29.3727 82.4125 29.4662C82.6324 29.5597 82.8937 29.6064 83.1965 29.6064C83.4507 29.6064 83.6635 29.5753 83.8349 29.5129C84.0063 29.4506 84.1362 29.3642 84.2248 29.2537C84.3133 29.1432 84.359 29.0171 84.3619 28.8755C84.359 28.7423 84.3147 28.6261 84.229 28.527C84.1462 28.425 84.0091 28.3343 83.8177 28.255C83.6264 28.1728 83.3679 28.0963 83.0423 28.0255L82.1682 27.8385C81.3913 27.6713 80.7787 27.3922 80.3302 27.0012C79.8847 26.6074 79.6633 26.0705 79.6661 25.3905C79.6633 24.838 79.8118 24.355 80.1117 23.9413C80.4145 23.5248 80.8329 23.2004 81.3671 22.9681C81.904 22.7357 82.5196 22.6196 83.2136 22.6196C83.922 22.6196 84.5347 22.7371 85.0516 22.9723C85.5686 23.2075 85.9671 23.539 86.247 23.9668C86.5298 24.3918 86.6726 24.889 86.6754 25.4585H84.3961Z" fill="#979EA8"/>
<path d="M77.6949 22.7386V31.4424H75.7069L72.5364 26.8695H72.485V31.4424H70.1029V22.7386H72.1251L75.2442 27.2945H75.3127V22.7386H77.6949Z" fill="#979EA8"/>
<path d="M68.1561 27.0905C68.1561 28.0595 67.9662 28.8769 67.5863 29.5427C67.2064 30.2057 66.6937 30.7086 66.0482 31.0514C65.4027 31.3914 64.6829 31.5614 63.8888 31.5614C63.0891 31.5614 62.3665 31.39 61.7209 31.0472C61.0783 30.7015 60.567 30.1972 60.1871 29.5342C59.8101 28.8684 59.6216 28.0538 59.6216 27.0905C59.6216 26.1215 59.8101 25.3055 60.1871 24.6425C60.567 23.9767 61.0783 23.4738 61.7209 23.1338C62.3665 22.791 63.0891 22.6196 63.8888 22.6196C64.6829 22.6196 65.4027 22.791 66.0482 23.1338C66.6937 23.4738 67.2064 23.9767 67.5863 24.6425C67.9662 25.3055 68.1561 26.1215 68.1561 27.0905ZM65.7054 27.0905C65.7054 26.5692 65.6355 26.13 65.4955 25.773C65.3584 25.4132 65.1542 25.1412 64.8828 24.957C64.6143 24.77 64.283 24.6765 63.8888 24.6765C63.4947 24.6765 63.1619 24.77 62.8906 24.957C62.6221 25.1412 62.4179 25.4132 62.2779 25.773C62.1408 26.13 62.0723 26.5692 62.0723 27.0905C62.0723 27.6118 62.1408 28.0524 62.2779 28.4122C62.4179 28.7692 62.6221 29.0412 62.8906 29.2282C63.1619 29.4124 63.4947 29.5044 63.8888 29.5044C64.283 29.5044 64.6143 29.4124 64.8828 29.2282C65.1542 29.0412 65.3584 28.7692 65.4955 28.4122C65.6355 28.0524 65.7054 27.6118 65.7054 27.0905Z" fill="#979EA8"/>
<path d="M57.7306 26.0025H55.3142C55.297 25.8042 55.2513 25.6243 55.1771 25.4628C55.1057 25.3013 55.0057 25.1624 54.8772 25.0463C54.7515 24.9273 54.5987 24.8366 54.4187 24.7743C54.2388 24.7091 54.0346 24.6765 53.8061 24.6765C53.4062 24.6765 53.0677 24.7729 52.7907 24.9655C52.5165 25.1582 52.3079 25.4344 52.1651 25.7943C52.0252 26.1541 51.9552 26.5862 51.9552 27.0905C51.9552 27.6231 52.0266 28.0694 52.1694 28.4292C52.3151 28.7862 52.525 29.0554 52.7992 29.2367C53.0734 29.4152 53.4033 29.5044 53.7889 29.5044C54.0089 29.5044 54.2059 29.4775 54.3802 29.4237C54.5544 29.367 54.7058 29.2863 54.8343 29.1814C54.9628 29.0766 55.0671 28.9505 55.1471 28.8032C55.2299 28.653 55.2856 28.4845 55.3142 28.2975L57.7306 28.3145C57.702 28.6828 57.5978 29.0582 57.4178 29.4407C57.2379 29.8204 56.9822 30.1717 56.6509 30.4947C56.3224 30.8148 55.9154 31.0727 55.4298 31.2682C54.9443 31.4637 54.3802 31.5614 53.7375 31.5614C52.932 31.5614 52.2094 31.39 51.5696 31.0472C50.9327 30.7043 50.4285 30.2 50.0572 29.5342C49.6887 28.8684 49.5045 28.0538 49.5045 27.0905C49.5045 26.1215 49.693 25.3055 50.0701 24.6425C50.4471 23.9767 50.9555 23.4738 51.5953 23.1338C52.2351 22.791 52.9492 22.6196 53.7375 22.6196C54.2916 22.6196 54.8015 22.6946 55.267 22.8448C55.7326 22.995 56.1411 23.2146 56.4924 23.5036C56.8437 23.7897 57.1265 24.1425 57.3407 24.5618C57.5549 24.9811 57.6849 25.4613 57.7306 26.0025Z" fill="#979EA8"/>
</svg>
