<svg width="174" height="28" viewBox="0 0 174 28" fill="none" xmlns="http://www.w3.org/2000/svg">
<path fill-rule="evenodd" clip-rule="evenodd" d="M5.01734 2.37162C5.01734 1.06181 6.06029 -2.87068e-06 7.34683 0L23.2052 3.53181e-05C24.4917 3.81888e-05 25.5347 1.06185 25.5347 2.37165V6.50084L27.6888 5.48169C29.2329 4.75116 31 5.89895 31 7.63242V24.6284C31 25.9382 29.9571 27 28.6705 27H2.32948C1.04294 27 0 25.9382 0 24.6284V13.0985C0 11.2331 2.01766 10.0979 3.56899 11.0905L15.098 18.467C15.7684 18.8959 15.9703 19.7968 15.549 20.4792C15.1277 21.1617 14.2428 21.3673 13.5725 20.9384L2.86705 14.0889V24.0811H28.1329V8.49026L25.5347 9.71953V17.8104C25.5347 19.6581 23.5511 20.7961 21.9986 19.8391L15.0305 15.5435C13.436 14.5606 13.565 12.1639 15.2554 11.3641L22.6676 7.85727V2.91895L7.88439 2.91892V8.66553C7.88439 9.47156 7.24258 10.125 6.45087 10.125C5.65915 10.125 5.01734 9.47156 5.01734 8.66553V2.37162ZM22.6676 11.076L17.3782 13.5785L22.6676 16.8392V11.076Z" fill="#F1B519"/>
<path d="M168.568 20.8413C167.438 20.8413 166.425 20.6419 165.528 20.2432C164.631 19.8279 163.917 19.2714 163.385 18.5737C162.87 17.876 162.588 17.1036 162.538 16.2564H166.051C166.118 16.788 166.375 17.2282 166.824 17.577C167.289 17.9259 167.862 18.1003 168.543 18.1003C169.207 18.1003 169.722 17.9674 170.088 17.7016C170.47 17.4358 170.661 17.0953 170.661 16.68C170.661 16.2314 170.428 15.8992 169.963 15.6833C169.515 15.4507 168.792 15.2015 167.795 14.9357C166.765 14.6865 165.918 14.429 165.254 14.1633C164.606 13.8975 164.041 13.4905 163.559 12.9423C163.094 12.3941 162.862 11.6548 162.862 10.7246C162.862 9.96042 163.078 9.26272 163.51 8.63146C163.958 8.00021 164.589 7.50185 165.403 7.13638C166.234 6.77092 167.206 6.58819 168.319 6.58819C169.963 6.58819 171.276 7.00349 172.256 7.83409C173.236 8.64807 173.776 9.75277 173.875 11.1482H170.536C170.487 10.6 170.254 10.1681 169.839 9.85244C169.44 9.5202 168.9 9.35408 168.219 9.35408C167.588 9.35408 167.098 9.47037 166.749 9.70294C166.417 9.9355 166.251 10.2594 166.251 10.6747C166.251 11.1399 166.483 11.497 166.948 11.7462C167.413 11.9788 168.136 12.2197 169.116 12.4688C170.113 12.718 170.935 12.9755 171.583 13.2413C172.231 13.5071 172.787 13.9224 173.252 14.4872C173.734 15.0354 173.983 15.7663 174 16.68C174 17.4773 173.776 18.1917 173.327 18.8229C172.895 19.4542 172.264 19.9525 171.433 20.318C170.619 20.6669 169.664 20.8413 168.568 20.8413Z" fill="#334155"/>
<path d="M157.686 9.67802V16.356C157.686 16.8212 157.794 17.1617 158.01 17.3777C158.243 17.577 158.625 17.6767 159.156 17.6767H160.776V20.617H158.583C155.643 20.617 154.173 19.1884 154.173 16.3311V9.67802H152.528V6.81245H154.173V3.39869H157.686V6.81245H160.776V9.67802H157.686Z" fill="#334155"/>
<path d="M147.039 8.9554C147.487 8.22447 148.069 7.65136 148.783 7.23606C149.514 6.82076 150.345 6.61311 151.275 6.61311V10.2761H150.353C149.257 10.2761 148.426 10.5335 147.861 11.0485C147.313 11.5635 147.039 12.4605 147.039 13.7397V20.617H143.55V6.81245H147.039V8.9554Z" fill="#334155"/>
<path d="M133.79 20.8413C132.461 20.8413 131.265 20.5506 130.202 19.9691C129.139 19.3711 128.3 18.5322 127.685 17.4524C127.087 16.3727 126.788 15.1268 126.788 13.7147C126.788 12.3027 127.096 11.0568 127.71 9.97703C128.341 8.89726 129.197 8.06666 130.277 7.48524C131.356 6.8872 132.561 6.58819 133.89 6.58819C135.219 6.58819 136.423 6.8872 137.503 7.48524C138.583 8.06666 139.43 8.89726 140.045 9.97703C140.676 11.0568 140.991 12.3027 140.991 13.7147C140.991 15.1268 140.668 16.3727 140.02 17.4524C139.388 18.5322 138.525 19.3711 137.428 19.9691C136.348 20.5506 135.136 20.8413 133.79 20.8413ZM133.79 17.8013C134.421 17.8013 135.011 17.6518 135.559 17.3528C136.124 17.0371 136.573 16.572 136.905 15.9574C137.237 15.3427 137.403 14.5952 137.403 13.7147C137.403 12.4024 137.054 11.3974 136.357 10.6997C135.676 9.98534 134.837 9.62818 133.84 9.62818C132.843 9.62818 132.004 9.98534 131.323 10.6997C130.659 11.3974 130.327 12.4024 130.327 13.7147C130.327 15.0271 130.65 16.0404 131.298 16.7547C131.963 17.4524 132.793 17.8013 133.79 17.8013Z" fill="#334155"/>
<path d="M114.261 8.80589C114.71 8.17463 115.324 7.65136 116.105 7.23606C116.902 6.80414 117.808 6.58819 118.821 6.58819C120.001 6.58819 121.064 6.8789 122.011 7.46032C122.974 8.04174 123.73 8.87234 124.278 9.95212C124.843 11.0153 125.125 12.2529 125.125 13.6649C125.125 15.0769 124.843 16.3311 124.278 17.4275C123.73 18.5073 122.974 19.3462 122.011 19.9442C121.064 20.5423 120.001 20.8413 118.821 20.8413C117.808 20.8413 116.911 20.6336 116.13 20.2183C115.366 19.803 114.743 19.2797 114.261 18.6485V27.1954H110.773V6.81245H114.261V8.80589ZM121.562 13.6649C121.562 12.8343 121.388 12.12 121.039 11.522C120.707 10.9073 120.258 10.4422 119.693 10.1265C119.145 9.81091 118.547 9.6531 117.899 9.6531C117.268 9.6531 116.67 9.81922 116.105 10.1515C115.557 10.4671 115.108 10.9322 114.759 11.5469C114.427 12.1615 114.261 12.8841 114.261 13.7147C114.261 14.5453 114.427 15.268 114.759 15.8826C115.108 16.4972 115.557 16.9707 116.105 17.3029C116.67 17.6186 117.268 17.7764 117.899 17.7764C118.547 17.7764 119.145 17.6102 119.693 17.278C120.258 16.9458 120.707 16.4723 121.039 15.8577C121.388 15.243 121.562 14.5121 121.562 13.6649Z" fill="#334155"/>
<path d="M108.226 13.4157C108.226 13.9141 108.193 14.3626 108.127 14.7613H98.0348C98.1178 15.758 98.4667 16.5388 99.0813 17.1036C99.696 17.6684 100.452 17.9508 101.349 17.9508C102.645 17.9508 103.567 17.3943 104.115 16.2813H107.877C107.479 17.6102 106.715 18.7066 105.585 19.5705C104.455 20.4177 103.068 20.8413 101.424 20.8413C100.095 20.8413 98.8986 20.5506 97.8354 19.9691C96.7889 19.3711 95.9666 18.5322 95.3686 17.4524C94.7871 16.3727 94.4964 15.1268 94.4964 13.7147C94.4964 12.2861 94.7871 11.0319 95.3686 9.95212C95.95 8.87234 96.764 8.04174 97.8105 7.46032C98.8571 6.8789 100.061 6.58819 101.424 6.58819C102.736 6.58819 103.907 6.87059 104.937 7.4354C105.984 8.00021 106.789 8.80589 107.354 9.85244C107.936 10.8824 108.226 12.0701 108.226 13.4157ZM104.613 12.419C104.597 11.5219 104.273 10.8076 103.641 10.2761C103.01 9.72786 102.238 9.45376 101.324 9.45376C100.46 9.45376 99.7292 9.71955 99.1312 10.2511C98.5498 10.7661 98.1926 11.4887 98.0597 12.419H104.613Z" fill="#334155"/>
<path d="M88.4009 20.617L84.5635 13.8393H82.9189V20.617H79.4304V3.22426H85.9589C87.3045 3.22426 88.4507 3.46513 89.3976 3.94688C90.3445 4.41201 91.0505 5.05158 91.5156 5.86556C91.9974 6.66294 92.2382 7.55999 92.2382 8.55671C92.2382 9.70293 91.906 10.7412 91.2415 11.6715C90.577 12.5851 89.5886 13.2164 88.2763 13.5652L92.4376 20.617H88.4009ZM82.9189 11.2229H85.8343C86.7812 11.2229 87.4872 10.9987 87.9523 10.5501C88.4175 10.085 88.65 9.44545 88.65 8.63146C88.65 7.83408 88.4175 7.21944 87.9523 6.78753C87.4872 6.33901 86.7812 6.11474 85.8343 6.11474H82.9189V11.2229Z" fill="#334155"/>
<path d="M73.5986 20.617L70.758 16.3311L68.2413 20.617H64.5036L69.0137 13.6898L64.4537 6.81245H68.3908L71.2065 11.0734L73.7481 6.81245H77.4858L72.9508 13.6898L77.5357 20.617H73.5986Z" fill="#334155"/>
<path d="M46 11.8957C46 10.1847 46.3821 8.65638 47.1462 7.31081C47.927 5.94863 48.9819 4.89377 50.3108 4.14623C51.6564 3.38208 53.1598 3 54.821 3C56.7646 3 58.4673 3.49836 59.9292 4.49508C61.391 5.4918 62.4126 6.87059 62.9941 8.63146H58.9823C58.5836 7.80086 58.0188 7.17792 57.2878 6.76262C56.5735 6.34732 55.7429 6.13967 54.7961 6.13967C53.7827 6.13967 52.8774 6.38054 52.08 6.86229C51.2992 7.32742 50.6846 7.9919 50.2361 8.85573C49.8041 9.71955 49.5882 10.7329 49.5882 11.8957C49.5882 13.0419 49.8041 14.0553 50.2361 14.9357C50.6846 15.7995 51.2992 16.4723 52.08 16.9541C52.8774 17.4192 53.7827 17.6518 54.7961 17.6518C55.7429 17.6518 56.5735 17.4441 57.2878 17.0288C58.0188 16.5969 58.5836 15.9657 58.9823 15.1351H62.9941C62.4126 16.9125 61.391 18.2996 59.9292 19.2964C58.4839 20.2765 56.7812 20.7665 54.821 20.7665C53.1598 20.7665 51.6564 20.3928 50.3108 19.6452C48.9819 18.8811 47.927 17.8262 47.1462 16.4806C46.3821 15.1351 46 13.6068 46 11.8957Z" fill="#334155"/>
</svg>
